<svg width="42" height="74" viewBox="0 0 42 74" fill="none" xmlns="http://www.w3.org/2000/svg">
<path d="M32.6477 0.272725H41.4545V52.2614C41.4545 56.9015 40.6023 60.8433 38.8977 64.0866C37.1932 67.33 34.7902 69.7921 31.6889 71.473C28.5876 73.1539 24.9299 73.9943 20.7159 73.9943C16.7386 73.9943 13.1993 73.2723 10.098 71.8281C6.99669 70.3603 4.55824 68.277 2.78267 65.5781C1.0071 62.8793 0.119318 59.6714 0.119318 55.9545H8.78409C8.78409 58.0142 9.29309 59.8134 10.3111 61.3523C11.3527 62.8674 12.7732 64.0511 14.5724 64.9034C16.3717 65.7557 18.4195 66.1818 20.7159 66.1818C23.2491 66.1818 25.4034 65.6491 27.179 64.5838C28.9545 63.5185 30.304 61.956 31.2273 59.8963C32.1742 57.813 32.6477 55.268 32.6477 52.2614V0.272725Z" fill="white"/>
</svg>
